<svg xmlns="http://www.w3.org/2000/svg" width="1200" height="630" viewBox="0 0 1200 630" role="img" aria-label="AI Agent FM">
  <defs>
    <radialGradient id="spectrum-arc" gradientUnits="userSpaceOnUse" cx="512" cy="792" r="546">
      <stop offset="0"     stop-color="#ef4938"/>
      <stop offset="0.159" stop-color="#ef4938"/>
      <stop offset="0.232" stop-color="#f39a2b"/>
      <stop offset="0.381" stop-color="#f39a2b"/>
      <stop offset="0.454" stop-color="#c83c88"/>
      <stop offset="0.586" stop-color="#c83c88"/>
      <stop offset="0.660" stop-color="#704fbc"/>
      <stop offset="0.766" stop-color="#704fbc"/>
      <stop offset="0.839" stop-color="#285db5"/>
      <stop offset="1"     stop-color="#285db5"/>
    </radialGradient>
    <clipPath id="cone-inner">
      <path d="M233.5 246H790.5Q804.5 246 797.6 260.5L539.1 804.9A30 30 0 0 1 484.9 804.9L226.4 260.5Q219.5 246 233.5 246Z"/>
    </clipPath>
  </defs>
  <rect width="1200" height="630" fill="#F4F0E6"/>
  <g transform="translate(-65.91 -4.06) scale(0.59748)">
    <path d="M206 216H818Q852 216 834 253.9L566.2 817.7A60 60 0 0 1 457.8 817.7L190 253.9Q172 216 206 216Z" fill="#101228"/>
    <g clip-path="url(#cone-inner)">
      <rect x="172" y="216" width="680" height="640" fill="url(#spectrum-arc)"/>
    </g>
  </g>
  <path transform="translate(545.00 293.10)" fill="#101228" d="M1.55 0 17.37 -60.2H37.15L52.98 0H41.28L38.01 -13.24H16.51L13.24 0ZM19.18 -23.74H35.35L28.04 -53.06H26.49ZM67.08 0V-60.2H78.43V0ZM120.23 0 136.05 -60.2H155.83L171.66 0H159.96L156.69 -13.24H135.19L131.92 0ZM137.86 -23.74H154.03L146.72 -53.06H145.17ZM206.06 1.2Q199.86 1.2 194.83 -1.59Q189.8 -4.39 186.83 -9.76Q183.87 -15.14 183.87 -22.88V-37.32Q183.87 -48.93 190.4 -55.17Q196.94 -61.4 208.12 -61.4Q219.21 -61.4 225.28 -55.51Q231.34 -49.62 231.34 -39.56V-39.22H220.16V-39.9Q220.16 -44.72 217.19 -47.99Q214.23 -51.26 208.12 -51.26Q202.1 -51.26 198.66 -47.56Q195.22 -43.86 195.22 -37.5V-22.7Q195.22 -16.43 198.66 -12.6Q202.1 -8.77 208.29 -8.77Q214.48 -8.77 217.32 -12.04Q220.16 -15.31 220.16 -20.3V-21.16H205.88V-30.79H231.34V0H220.85V-5.76H219.3Q218.7 -4.3 217.36 -2.67Q216.03 -1.03 213.37 0.09Q210.7 1.2 206.06 1.2ZM249.06 0V-60.2H287.76V-49.88H260.41V-35.52H285.35V-25.2H260.41V-10.32H288.27V0ZM303.58 0V-60.2H325.17L337.12 -7.74H338.67V-60.2H349.85V0H328.26L316.31 -52.46H314.76V0ZM382.01 0V-49.88H364.47V-60.2H410.91V-49.88H393.36V0ZM451.67 0V-60.2H489.51V-49.88H463.02V-35.35H487.45V-25.03H463.02V0ZM504.48 0V-60.2H525.55L535.95 -7.74H537.5L547.91 -60.2H568.98V0H557.97V-51.86H556.42L546.1 0H527.35L517.03 -51.86H515.48V0Z"/>
  <path transform="translate(545.00 371.50)" fill="#6F6A58" d="M7.3 0V-18.56H0.77V-22.4H18.05V-18.56H11.52V0ZM25.12 0.26Q23.26 0.26 21.87 -0.59Q20.48 -1.44 19.71 -2.94Q18.94 -4.45 18.94 -6.4V-15.87H22.98V-6.72Q22.98 -4.93 23.86 -4.03Q24.74 -3.14 26.37 -3.14Q28.22 -3.14 29.25 -4.37Q30.27 -5.6 30.27 -7.81V-15.87H34.3V0H30.34V-2.08H29.76Q29.38 -1.28 28.32 -0.51Q27.26 0.26 25.12 0.26ZM39.1 0V-15.87H43.07V-14.08H43.65Q44 -15.04 44.82 -15.49Q45.63 -15.94 46.72 -15.94H48.64V-12.35H46.66Q45.12 -12.35 44.13 -11.54Q43.14 -10.72 43.14 -9.02V0ZM52.1 0V-15.87H56.06V-13.79H56.64Q57.02 -14.62 58.08 -15.38Q59.14 -16.13 61.28 -16.13Q63.14 -16.13 64.53 -15.28Q65.92 -14.43 66.69 -12.94Q67.46 -11.46 67.46 -9.47V0H63.42V-9.15Q63.42 -10.94 62.54 -11.84Q61.66 -12.74 60.03 -12.74Q58.18 -12.74 57.15 -11.5Q56.13 -10.27 56.13 -8.06V0ZM82.3 6.4V2.88H90.94Q91.84 2.88 91.84 1.92V-2.08H91.26Q90.88 -1.28 89.82 -0.51Q88.77 0.26 86.62 0.26Q84.77 0.26 83.38 -0.59Q81.98 -1.44 81.22 -2.94Q80.45 -4.45 80.45 -6.4V-15.87H84.48V-6.72Q84.48 -4.93 85.36 -4.03Q86.24 -3.14 87.87 -3.14Q89.73 -3.14 90.75 -4.37Q91.78 -5.6 91.78 -7.81V-15.87H95.81V2.82Q95.81 4.45 94.85 5.42Q93.89 6.4 92.29 6.4ZM108.16 0.45Q105.79 0.45 103.9 -0.51Q102.02 -1.47 100.93 -3.3Q99.84 -5.12 99.84 -7.68V-8.19Q99.84 -10.75 100.93 -12.58Q102.02 -14.4 103.9 -15.36Q105.79 -16.32 108.16 -16.32Q110.53 -16.32 112.42 -15.36Q114.3 -14.4 115.39 -12.58Q116.48 -10.75 116.48 -8.19V-7.68Q116.48 -5.12 115.39 -3.3Q114.3 -1.47 112.42 -0.51Q110.53 0.45 108.16 0.45ZM108.16 -3.14Q110.02 -3.14 111.23 -4.34Q112.45 -5.54 112.45 -7.78V-8.1Q112.45 -10.34 111.25 -11.54Q110.05 -12.74 108.16 -12.74Q106.3 -12.74 105.09 -11.54Q103.87 -10.34 103.87 -8.1V-7.78Q103.87 -5.54 105.09 -4.34Q106.3 -3.14 108.16 -3.14ZM126.56 0.26Q124.7 0.26 123.31 -0.59Q121.92 -1.44 121.15 -2.94Q120.38 -4.45 120.38 -6.4V-15.87H124.42V-6.72Q124.42 -4.93 125.3 -4.03Q126.18 -3.14 127.81 -3.14Q129.66 -3.14 130.69 -4.37Q131.71 -5.6 131.71 -7.81V-15.87H135.74V0H131.78V-2.08H131.2Q130.82 -1.28 129.76 -0.51Q128.7 0.26 126.56 0.26ZM140.54 0V-15.87H144.51V-14.08H145.09Q145.44 -15.04 146.26 -15.49Q147.07 -15.94 148.16 -15.94H150.08V-12.35H148.1Q146.56 -12.35 145.57 -11.54Q144.58 -10.72 144.58 -9.02V0ZM159.94 0 165.82 -22.4H173.18L179.07 0H174.72L173.5 -4.93H165.5L164.29 0ZM166.5 -8.83H172.51L169.79 -19.74H169.22ZM182.08 0V-22.4H186.3V0ZM190.91 -6.34V-9.98H200.38V-6.34ZM210.05 0.45Q208.35 0.45 207.01 -0.14Q205.66 -0.74 204.88 -1.87Q204.1 -3.01 204.1 -4.64Q204.1 -7.1 205.82 -8.35Q207.55 -9.6 210.24 -9.6H214.59V-10.5Q214.59 -11.62 213.89 -12.34Q213.18 -13.06 211.65 -13.06Q210.14 -13.06 209.41 -12.37Q208.67 -11.68 208.45 -10.59L204.74 -11.84Q205.12 -13.06 205.97 -14.06Q206.82 -15.07 208.24 -15.7Q209.66 -16.32 211.71 -16.32Q214.85 -16.32 216.67 -14.75Q218.5 -13.18 218.5 -10.21V-4.29Q218.5 -3.33 219.39 -3.33H220.67V0H217.98Q216.8 0 216.03 -0.58Q215.26 -1.15 215.26 -2.11V-2.14H214.66Q214.53 -1.76 214.08 -1.14Q213.63 -0.51 212.67 -0.03Q211.71 0.45 210.05 0.45ZM210.75 -2.82Q212.45 -2.82 213.52 -3.76Q214.59 -4.7 214.59 -6.27V-6.59H210.53Q209.41 -6.59 208.77 -6.11Q208.13 -5.63 208.13 -4.77Q208.13 -3.9 208.8 -3.36Q209.47 -2.82 210.75 -2.82ZM222.85 -7.87V-8.38Q222.85 -10.88 223.84 -12.66Q224.83 -14.43 226.48 -15.38Q228.13 -16.32 230.08 -16.32Q232.26 -16.32 233.38 -15.55Q234.5 -14.78 235.01 -13.95H235.58V-15.87H239.55V2.82Q239.55 4.45 238.59 5.42Q237.63 6.4 236.03 6.4H225.41V2.88H234.62Q235.52 2.88 235.52 1.92V-2.21H234.94Q234.46 -1.41 233.36 -0.67Q232.26 0.06 230.08 0.06Q228.13 0.06 226.48 -0.88Q224.83 -1.82 223.84 -3.6Q222.85 -5.38 222.85 -7.87ZM231.23 -3.46Q233.09 -3.46 234.34 -4.64Q235.58 -5.82 235.58 -7.97V-8.29Q235.58 -10.46 234.35 -11.63Q233.12 -12.8 231.23 -12.8Q229.38 -12.8 228.13 -11.63Q226.88 -10.46 226.88 -8.29V-7.97Q226.88 -5.82 228.13 -4.64Q229.38 -3.46 231.23 -3.46ZM251.58 0.45Q249.22 0.45 247.41 -0.56Q245.6 -1.57 244.59 -3.41Q243.58 -5.25 243.58 -7.74V-8.13Q243.58 -10.62 244.58 -12.46Q245.57 -14.3 247.36 -15.31Q249.15 -16.32 251.52 -16.32Q253.86 -16.32 255.58 -15.28Q257.31 -14.24 258.27 -12.4Q259.23 -10.56 259.23 -8.13V-6.75H247.68Q247.74 -5.12 248.9 -4.1Q250.05 -3.07 251.71 -3.07Q253.41 -3.07 254.21 -3.81Q255.01 -4.54 255.42 -5.44L258.72 -3.71Q258.27 -2.88 257.42 -1.9Q256.58 -0.93 255.17 -0.24Q253.76 0.45 251.58 0.45ZM247.71 -9.76H255.14Q255.01 -11.14 254.03 -11.97Q253.06 -12.8 251.49 -12.8Q249.86 -12.8 248.9 -11.97Q247.94 -11.14 247.71 -9.76ZM263.14 0V-15.87H267.1V-13.79H267.68Q268.06 -14.62 269.12 -15.38Q270.18 -16.13 272.32 -16.13Q274.18 -16.13 275.57 -15.28Q276.96 -14.43 277.73 -12.94Q278.5 -11.46 278.5 -9.47V0H274.46V-9.15Q274.46 -10.94 273.58 -11.84Q272.7 -12.74 271.07 -12.74Q269.22 -12.74 268.19 -11.5Q267.17 -10.27 267.17 -8.06V0ZM288.8 0Q287.23 0 286.26 -0.98Q285.28 -1.95 285.28 -3.58V-12.54H281.31V-15.87H285.28V-20.8H289.31V-15.87H293.66V-12.54H289.31V-4.29Q289.31 -3.33 290.21 -3.33H293.28V0ZM315.62 0.45Q313.47 0.45 312.32 -0.29Q311.17 -1.02 310.62 -1.92H310.05V0H306.08V-22.4H310.11V-14.05H310.69Q311.2 -14.88 312.34 -15.6Q313.47 -16.32 315.62 -16.32Q317.54 -16.32 319.17 -15.38Q320.8 -14.43 321.79 -12.61Q322.78 -10.78 322.78 -8.19V-7.68Q322.78 -5.09 321.79 -3.26Q320.8 -1.44 319.17 -0.5Q317.54 0.45 315.62 0.45ZM314.4 -3.07Q316.26 -3.07 317.5 -4.27Q318.75 -5.47 318.75 -7.78V-8.1Q318.75 -10.4 317.52 -11.6Q316.29 -12.8 314.4 -12.8Q312.54 -12.8 311.3 -11.6Q310.05 -10.4 310.05 -8.1V-7.78Q310.05 -5.47 311.3 -4.27Q312.54 -3.07 314.4 -3.07ZM332.86 0.26Q331.01 0.26 329.62 -0.59Q328.22 -1.44 327.46 -2.94Q326.69 -4.45 326.69 -6.4V-15.87H330.72V-6.72Q330.72 -4.93 331.6 -4.03Q332.48 -3.14 334.11 -3.14Q335.97 -3.14 336.99 -4.37Q338.02 -5.6 338.02 -7.81V-15.87H342.05V0H338.08V-2.08H337.5Q337.12 -1.28 336.06 -0.51Q335.01 0.26 332.86 0.26ZM346.85 0V-15.87H350.88V0ZM348.86 -17.73Q347.78 -17.73 347.02 -18.43Q346.27 -19.14 346.27 -20.29Q346.27 -21.44 347.02 -22.14Q347.78 -22.85 348.86 -22.85Q349.98 -22.85 350.72 -22.14Q351.46 -21.44 351.46 -20.29Q351.46 -19.14 350.72 -18.43Q349.98 -17.73 348.86 -17.73ZM355.68 0V-22.4H359.71V0ZM370.91 0.45Q369.02 0.45 367.38 -0.5Q365.73 -1.44 364.74 -3.26Q363.74 -5.09 363.74 -7.68V-8.19Q363.74 -10.78 364.74 -12.61Q365.73 -14.43 367.36 -15.38Q368.99 -16.32 370.91 -16.32Q373.09 -16.32 374.21 -15.6Q375.33 -14.88 375.84 -14.05H376.42V-22.4H380.45V0H376.48V-1.92H375.9Q375.36 -1.02 374.22 -0.29Q373.09 0.45 370.91 0.45ZM372.13 -3.07Q373.98 -3.07 375.23 -4.27Q376.48 -5.47 376.48 -7.78V-8.1Q376.48 -10.4 375.25 -11.6Q374.02 -12.8 372.13 -12.8Q370.27 -12.8 369.02 -11.6Q367.78 -10.4 367.78 -8.1V-7.78Q367.78 -5.47 369.02 -4.27Q370.27 -3.07 372.13 -3.07ZM400.29 0.45Q397.18 0.45 395.2 -0.9Q393.22 -2.24 392.8 -4.74L396.51 -5.7Q396.83 -4.03 397.87 -3.39Q398.91 -2.75 400.29 -2.75Q401.7 -2.75 402.37 -3.25Q403.04 -3.74 403.04 -4.48Q403.04 -5.22 402.4 -5.62Q401.76 -6.02 400.35 -6.27L399.46 -6.43Q397.79 -6.75 396.42 -7.31Q395.04 -7.87 394.21 -8.86Q393.38 -9.86 393.38 -11.42Q393.38 -13.79 395.1 -15.06Q396.83 -16.32 399.65 -16.32Q402.3 -16.32 404.06 -15.14Q405.82 -13.95 406.37 -12.03L402.62 -10.88Q402.37 -12.1 401.58 -12.61Q400.8 -13.12 399.65 -13.12Q398.5 -13.12 397.89 -12.72Q397.28 -12.32 397.28 -11.62Q397.28 -10.85 397.92 -10.48Q398.56 -10.11 399.65 -9.92L400.54 -9.76Q402.34 -9.44 403.79 -8.91Q405.25 -8.38 406.1 -7.41Q406.94 -6.43 406.94 -4.77Q406.94 -2.27 405.14 -0.91Q403.33 0.45 400.29 0.45ZM416.54 0Q414.98 0 414 -0.98Q413.02 -1.95 413.02 -3.58V-12.54H409.06V-15.87H413.02V-20.8H417.06V-15.87H421.41V-12.54H417.06V-4.29Q417.06 -3.33 417.95 -3.33H421.02V0ZM432.35 0.45Q429.98 0.45 428.1 -0.51Q426.21 -1.47 425.12 -3.3Q424.03 -5.12 424.03 -7.68V-8.19Q424.03 -10.75 425.12 -12.58Q426.21 -14.4 428.1 -15.36Q429.98 -16.32 432.35 -16.32Q434.72 -16.32 436.61 -15.36Q438.5 -14.4 439.58 -12.58Q440.67 -10.75 440.67 -8.19V-7.68Q440.67 -5.12 439.58 -3.3Q438.5 -1.47 436.61 -0.51Q434.72 0.45 432.35 0.45ZM432.35 -3.14Q434.21 -3.14 435.42 -4.34Q436.64 -5.54 436.64 -7.78V-8.1Q436.64 -10.34 435.44 -11.54Q434.24 -12.74 432.35 -12.74Q430.5 -12.74 429.28 -11.54Q428.06 -10.34 428.06 -8.1V-7.78Q428.06 -5.54 429.28 -4.34Q430.5 -3.14 432.35 -3.14ZM444.7 0V-15.87H448.67V-14.08H449.25Q449.6 -15.04 450.42 -15.49Q451.23 -15.94 452.32 -15.94H454.24V-12.35H452.26Q450.72 -12.35 449.73 -11.54Q448.74 -10.72 448.74 -9.02V0ZM459.42 6.4V2.88H468.06Q468.96 2.88 468.96 1.92V-2.08H468.38Q468 -1.28 466.94 -0.51Q465.89 0.26 463.74 0.26Q461.89 0.26 460.5 -0.59Q459.1 -1.44 458.34 -2.94Q457.57 -4.45 457.57 -6.4V-15.87H461.6V-6.72Q461.6 -4.93 462.48 -4.03Q463.36 -3.14 464.99 -3.14Q466.85 -3.14 467.87 -4.37Q468.9 -5.6 468.9 -7.81V-15.87H472.93V2.82Q472.93 4.45 471.97 5.42Q471.01 6.4 469.41 6.4Z"/>
  <path transform="translate(545.00 419.50)" fill="#6F6A58" d="M2.24 0V-15.87H6.27V0ZM4.26 -17.73Q3.17 -17.73 2.42 -18.43Q1.66 -19.14 1.66 -20.29Q1.66 -21.44 2.42 -22.14Q3.17 -22.85 4.26 -22.85Q5.38 -22.85 6.11 -22.14Q6.85 -21.44 6.85 -20.29Q6.85 -19.14 6.11 -18.43Q5.38 -17.73 4.26 -17.73ZM11.07 0V-15.87H15.04V-13.79H15.62Q16 -14.62 17.06 -15.38Q18.11 -16.13 20.26 -16.13Q22.11 -16.13 23.5 -15.28Q24.9 -14.43 25.66 -12.94Q26.43 -11.46 26.43 -9.47V0H22.4V-9.15Q22.4 -10.94 21.52 -11.84Q20.64 -12.74 19.01 -12.74Q17.15 -12.74 16.13 -11.5Q15.1 -10.27 15.1 -8.06V0ZM36.74 0Q35.17 0 34.19 -0.98Q33.22 -1.95 33.22 -3.58V-12.54H29.25V-15.87H33.22V-20.8H37.25V-15.87H41.6V-12.54H37.25V-4.29Q37.25 -3.33 38.14 -3.33H41.22V0ZM52.54 0.45Q50.18 0.45 48.29 -0.51Q46.4 -1.47 45.31 -3.3Q44.22 -5.12 44.22 -7.68V-8.19Q44.22 -10.75 45.31 -12.58Q46.4 -14.4 48.29 -15.36Q50.18 -16.32 52.54 -16.32Q54.91 -16.32 56.8 -15.36Q58.69 -14.4 59.78 -12.58Q60.86 -10.75 60.86 -8.19V-7.68Q60.86 -5.12 59.78 -3.3Q58.69 -1.47 56.8 -0.51Q54.91 0.45 52.54 0.45ZM52.54 -3.14Q54.4 -3.14 55.62 -4.34Q56.83 -5.54 56.83 -7.78V-8.1Q56.83 -10.34 55.63 -11.54Q54.43 -12.74 52.54 -12.74Q50.69 -12.74 49.47 -11.54Q48.26 -10.34 48.26 -8.1V-7.78Q48.26 -5.54 49.47 -4.34Q50.69 -3.14 52.54 -3.14ZM78.27 0.45Q76.58 0.45 75.23 -0.14Q73.89 -0.74 73.1 -1.87Q72.32 -3.01 72.32 -4.64Q72.32 -7.1 74.05 -8.35Q75.78 -9.6 78.46 -9.6H82.82V-10.5Q82.82 -11.62 82.11 -12.34Q81.41 -13.06 79.87 -13.06Q78.37 -13.06 77.63 -12.37Q76.9 -11.68 76.67 -10.59L72.96 -11.84Q73.34 -13.06 74.19 -14.06Q75.04 -15.07 76.46 -15.7Q77.89 -16.32 79.94 -16.32Q83.07 -16.32 84.9 -14.75Q86.72 -13.18 86.72 -10.21V-4.29Q86.72 -3.33 87.62 -3.33H88.9V0H86.21Q85.02 0 84.26 -0.58Q83.49 -1.15 83.49 -2.11V-2.14H82.88Q82.75 -1.76 82.3 -1.14Q81.86 -0.51 80.9 -0.03Q79.94 0.45 78.27 0.45ZM78.98 -2.82Q80.67 -2.82 81.74 -3.76Q82.82 -4.7 82.82 -6.27V-6.59H78.75Q77.63 -6.59 76.99 -6.11Q76.35 -5.63 76.35 -4.77Q76.35 -3.9 77.02 -3.36Q77.7 -2.82 78.98 -2.82ZM100.61 6.4V-15.87H104.58V-13.95H105.15Q105.7 -14.88 106.85 -15.6Q108 -16.32 110.14 -16.32Q112.06 -16.32 113.7 -15.38Q115.33 -14.43 116.32 -12.61Q117.31 -10.78 117.31 -8.19V-7.68Q117.31 -5.09 116.32 -3.26Q115.33 -1.44 113.7 -0.5Q112.06 0.45 110.14 0.45Q108 0.45 106.86 -0.27Q105.73 -0.99 105.22 -1.82H104.64V6.4ZM108.93 -3.07Q110.82 -3.07 112.05 -4.27Q113.28 -5.47 113.28 -7.78V-8.1Q113.28 -10.4 112.03 -11.6Q110.78 -12.8 108.93 -12.8Q107.07 -12.8 105.82 -11.6Q104.58 -10.4 104.58 -8.1V-7.78Q104.58 -5.47 105.82 -4.27Q107.07 -3.07 108.93 -3.07ZM121.34 0V-15.87H125.31V-14.08H125.89Q126.24 -15.04 127.06 -15.49Q127.87 -15.94 128.96 -15.94H130.88V-12.35H128.9Q127.36 -12.35 126.37 -11.54Q125.38 -10.72 125.38 -9.02V0ZM134.34 0V-15.87H138.37V0ZM136.35 -17.73Q135.26 -17.73 134.51 -18.43Q133.76 -19.14 133.76 -20.29Q133.76 -21.44 134.51 -22.14Q135.26 -22.85 136.35 -22.85Q137.47 -22.85 138.21 -22.14Q138.94 -21.44 138.94 -20.29Q138.94 -19.14 138.21 -18.43Q137.47 -17.73 136.35 -17.73ZM146.5 0 141.44 -15.87H145.73L149.41 -2.94H149.98L153.66 -15.87H157.95L152.9 0ZM165.57 0.45Q163.87 0.45 162.53 -0.14Q161.18 -0.74 160.4 -1.87Q159.62 -3.01 159.62 -4.64Q159.62 -7.1 161.34 -8.35Q163.07 -9.6 165.76 -9.6H170.11V-10.5Q170.11 -11.62 169.41 -12.34Q168.7 -13.06 167.17 -13.06Q165.66 -13.06 164.93 -12.37Q164.19 -11.68 163.97 -10.59L160.26 -11.84Q160.64 -13.06 161.49 -14.06Q162.34 -15.07 163.76 -15.7Q165.18 -16.32 167.23 -16.32Q170.37 -16.32 172.19 -14.75Q174.02 -13.18 174.02 -10.21V-4.29Q174.02 -3.33 174.91 -3.33H176.19V0H173.5Q172.32 0 171.55 -0.58Q170.78 -1.15 170.78 -2.11V-2.14H170.18Q170.05 -1.76 169.6 -1.14Q169.15 -0.51 168.19 -0.03Q167.23 0.45 165.57 0.45ZM166.27 -2.82Q167.97 -2.82 169.04 -3.76Q170.11 -4.7 170.11 -6.27V-6.59H166.05Q164.93 -6.59 164.29 -6.11Q163.65 -5.63 163.65 -4.77Q163.65 -3.9 164.32 -3.36Q164.99 -2.82 166.27 -2.82ZM184.38 0Q182.82 0 181.84 -0.98Q180.86 -1.95 180.86 -3.58V-12.54H176.9V-15.87H180.86V-20.8H184.9V-15.87H189.25V-12.54H184.9V-4.29Q184.9 -3.33 185.79 -3.33H188.86V0ZM199.87 0.45Q197.5 0.45 195.7 -0.56Q193.89 -1.57 192.88 -3.41Q191.87 -5.25 191.87 -7.74V-8.13Q191.87 -10.62 192.86 -12.46Q193.86 -14.3 195.65 -15.31Q197.44 -16.32 199.81 -16.32Q202.14 -16.32 203.87 -15.28Q205.6 -14.24 206.56 -12.4Q207.52 -10.56 207.52 -8.13V-6.75H195.97Q196.03 -5.12 197.18 -4.1Q198.34 -3.07 200 -3.07Q201.7 -3.07 202.5 -3.81Q203.3 -4.54 203.71 -5.44L207.01 -3.71Q206.56 -2.88 205.71 -1.9Q204.86 -0.93 203.46 -0.24Q202.05 0.45 199.87 0.45ZM196 -9.76H203.42Q203.3 -11.14 202.32 -11.97Q201.34 -12.8 199.78 -12.8Q198.14 -12.8 197.18 -11.97Q196.22 -11.14 196 -9.76ZM219.87 6.4V-15.87H223.84V-13.95H224.42Q224.96 -14.88 226.11 -15.6Q227.26 -16.32 229.41 -16.32Q231.33 -16.32 232.96 -15.38Q234.59 -14.43 235.58 -12.61Q236.58 -10.78 236.58 -8.19V-7.68Q236.58 -5.09 235.58 -3.26Q234.59 -1.44 232.96 -0.5Q231.33 0.45 229.41 0.45Q227.26 0.45 226.13 -0.27Q224.99 -0.99 224.48 -1.82H223.9V6.4ZM228.19 -3.07Q230.08 -3.07 231.31 -4.27Q232.54 -5.47 232.54 -7.78V-8.1Q232.54 -10.4 231.3 -11.6Q230.05 -12.8 228.19 -12.8Q226.34 -12.8 225.09 -11.6Q223.84 -10.4 223.84 -8.1V-7.78Q223.84 -5.47 225.09 -4.27Q226.34 -3.07 228.19 -3.07ZM248.16 0.45Q245.79 0.45 243.9 -0.51Q242.02 -1.47 240.93 -3.3Q239.84 -5.12 239.84 -7.68V-8.19Q239.84 -10.75 240.93 -12.58Q242.02 -14.4 243.9 -15.36Q245.79 -16.32 248.16 -16.32Q250.53 -16.32 252.42 -15.36Q254.3 -14.4 255.39 -12.58Q256.48 -10.75 256.48 -8.19V-7.68Q256.48 -5.12 255.39 -3.3Q254.3 -1.47 252.42 -0.51Q250.53 0.45 248.16 0.45ZM248.16 -3.14Q250.02 -3.14 251.23 -4.34Q252.45 -5.54 252.45 -7.78V-8.1Q252.45 -10.34 251.25 -11.54Q250.05 -12.74 248.16 -12.74Q246.3 -12.74 245.09 -11.54Q243.87 -10.34 243.87 -8.1V-7.78Q243.87 -5.54 245.09 -4.34Q246.3 -3.14 248.16 -3.14ZM266.91 0.45Q265.02 0.45 263.38 -0.5Q261.73 -1.44 260.74 -3.26Q259.74 -5.09 259.74 -7.68V-8.19Q259.74 -10.78 260.74 -12.61Q261.73 -14.43 263.36 -15.38Q264.99 -16.32 266.91 -16.32Q269.09 -16.32 270.21 -15.6Q271.33 -14.88 271.84 -14.05H272.42V-22.4H276.45V0H272.48V-1.92H271.9Q271.36 -1.02 270.22 -0.29Q269.09 0.45 266.91 0.45ZM268.13 -3.07Q269.98 -3.07 271.23 -4.27Q272.48 -5.47 272.48 -7.78V-8.1Q272.48 -10.4 271.25 -11.6Q270.02 -12.8 268.13 -12.8Q266.27 -12.8 265.02 -11.6Q263.78 -10.4 263.78 -8.1V-7.78Q263.78 -5.47 265.02 -4.27Q266.27 -3.07 268.13 -3.07ZM288.7 0.45Q286.4 0.45 284.53 -0.51Q282.66 -1.47 281.57 -3.3Q280.48 -5.12 280.48 -7.71V-8.16Q280.48 -10.75 281.57 -12.58Q282.66 -14.4 284.53 -15.36Q286.4 -16.32 288.7 -16.32Q290.98 -16.32 292.61 -15.52Q294.24 -14.72 295.25 -13.33Q296.26 -11.94 296.58 -10.18L292.67 -9.34Q292.48 -10.78 291.55 -11.76Q290.62 -12.74 288.8 -12.74Q286.98 -12.74 285.74 -11.55Q284.51 -10.37 284.51 -8.1V-7.78Q284.51 -5.54 285.74 -4.34Q286.98 -3.14 288.8 -3.14Q290.62 -3.14 291.57 -4.08Q292.51 -5.02 292.77 -6.56L296.67 -5.63Q296.26 -3.94 295.25 -2.54Q294.24 -1.15 292.61 -0.35Q290.98 0.45 288.7 0.45ZM305.25 0.45Q303.55 0.45 302.21 -0.14Q300.86 -0.74 300.08 -1.87Q299.3 -3.01 299.3 -4.64Q299.3 -7.1 301.02 -8.35Q302.75 -9.6 305.44 -9.6H309.79V-10.5Q309.79 -11.62 309.09 -12.34Q308.38 -13.06 306.85 -13.06Q305.34 -13.06 304.61 -12.37Q303.87 -11.68 303.65 -10.59L299.94 -11.84Q300.32 -13.06 301.17 -14.06Q302.02 -15.07 303.44 -15.7Q304.86 -16.32 306.91 -16.32Q310.05 -16.32 311.87 -14.75Q313.7 -13.18 313.7 -10.21V-4.29Q313.7 -3.33 314.59 -3.33H315.87V0H313.18Q312 0 311.23 -0.58Q310.46 -1.15 310.46 -2.11V-2.14H309.86Q309.73 -1.76 309.28 -1.14Q308.83 -0.51 307.87 -0.03Q306.91 0.45 305.25 0.45ZM305.95 -2.82Q307.65 -2.82 308.72 -3.76Q309.79 -4.7 309.79 -6.27V-6.59H305.73Q304.61 -6.59 303.97 -6.11Q303.33 -5.63 303.33 -4.77Q303.33 -3.9 304 -3.36Q304.67 -2.82 305.95 -2.82ZM325.6 0.45Q322.5 0.45 320.51 -0.9Q318.53 -2.24 318.11 -4.74L321.82 -5.7Q322.14 -4.03 323.18 -3.39Q324.22 -2.75 325.6 -2.75Q327.01 -2.75 327.68 -3.25Q328.35 -3.74 328.35 -4.48Q328.35 -5.22 327.71 -5.62Q327.07 -6.02 325.66 -6.27L324.77 -6.43Q323.1 -6.75 321.73 -7.31Q320.35 -7.87 319.52 -8.86Q318.69 -9.86 318.69 -11.42Q318.69 -13.79 320.42 -15.06Q322.14 -16.32 324.96 -16.32Q327.62 -16.32 329.38 -15.14Q331.14 -13.95 331.68 -12.03L327.94 -10.88Q327.68 -12.1 326.9 -12.61Q326.11 -13.12 324.96 -13.12Q323.81 -13.12 323.2 -12.72Q322.59 -12.32 322.59 -11.62Q322.59 -10.85 323.23 -10.48Q323.87 -10.11 324.96 -9.92L325.86 -9.76Q327.65 -9.44 329.1 -8.91Q330.56 -8.38 331.41 -7.41Q332.26 -6.43 332.26 -4.77Q332.26 -2.27 330.45 -0.91Q328.64 0.45 325.6 0.45ZM341.86 0Q340.29 0 339.31 -0.98Q338.34 -1.95 338.34 -3.58V-12.54H334.37V-15.87H338.34V-20.8H342.37V-15.87H346.72V-12.54H342.37V-4.29Q342.37 -3.33 343.26 -3.33H346.34V0Z"/>
</svg>
